PathFileType	3	(X/Y/Z)	D:\minhoCalibration\240510\subject1_KPNP\preferred\preferred10.trc
DataRate	CameraRate	NumFrames	NumMarkers	Units	OrigDataRate	OrigDataStartFrame	OrigNumFrames
200.0	200.0	24	10	mm	200.0	507	162	
Frame#	Time	Left_Ankle_Outer1			Left_Ankle_Inner1			Left_Knee_Outer1			Left_Knee_Inner1			Left_Wrist1			Right_Wrist1			Right_Knee_Inner1			Right_Knee_Outer1			Right_Ankle_Inner1			Right_Ankle_Outer1			
		X1	Y1	Z1	X2	Y2	Z2	X3	Y3	Z3	X4	Y4	Z4	X5	Y5	Z5	X6	Y6	Z6	X7	Y7	Z7	X8	Y8	Z8	X9	Y9	Z9	X10	Y10	Z10	
507	2.525	-430.39127	125.51363	-541.33411	-485.29211	130.31038	-533.7749	-408.24097	550.52448	-369.93417	-513.03448	520.12646	-398.67456	-378.14291	994.77863	-535.21259	-714.01025	1005.5039	-642.24359	-802.96014	552.54675	-506.4003	-875.70758	597.36279	-592.39386	-689.32104	331.05322	-887.80499	-785.64417	314.62167	-932.79492
508	2.53	-430.96545	125.47755	-541.22534	-484.87576	131.4295	-533.20612	-402.28293	552.18097	-374.36859	-507.69437	522.17255	-400.38858	-371.71194	997.46796	-540.55823	-713.71399	1010.4247	-629.35052	-797.22949	558.16089	-485.0282	-874.94434	603.60303	-567.20844	-691.61163	349.01508	-873.547	-788.54877	329.93329	-917.79669
509	2.535	-430.84406	126.30189	-541.34949	-484.34	132.78551	-532.71545	-396.50275	553.93842	-379.32413	-502.34009	524.44092	-402.01511	-365.00958	999.99298	-547.05621	-712.71283	1015.1774	-616.61261	-790.69562	564.25458	-463.36523	-873.22888	610.02869	-541.46503	-693.46545	367.56284	-858.08649	-789.3905	348.37286	-901.6369
510	2.54	-430.75153	127.32173	-541.51489	-484.0527	134.28072	-531.97131	-390.16666	555.97668	-384.08359	-496.77737	526.88025	-403.64218	-359.504	1002.4653	-553.7998	-711.28217	1020.9204	-603.81097	-783.08936	571.26453	-441.11731	-870.48785	617.30371	-514.7785	-694.70386	386.68945	-841.45831	-792.26648	366.95825	-883.05286
511	2.545	-430.72156	128.60606	-541.65662	-483.85593	135.92188	-530.98938	-383.86853	558.16333	-389.18744	-491.13132	529.46588	-405.27142	-354.55783	1005.0759	-561.17407	-709.45599	1026.6326	-591.04706	-773.82788	578.82428	-417.96478	-866.37701	625.073	-487.38971	-697.09534	405.33643	-823.81317	-793.45685	387.1564	-865.27563
512	2.55	-430.8226	130.12422	-541.76001	-483.7822	137.95085	-529.80499	-377.81223	560.44861	-394.51291	-485.39856	532.26941	-406.84015	-350.13101	1007.7626	-569.16632	-707.15369	1032.3958	-578.66046	-763.58179	587.30621	-395.17908	-860.95105	633.75195	-459.34802	-698.5105	424.68198	-805.18732	-796.68152	407.50031	-845.0741
513	2.555	-431.05539	131.83986	-541.76892	-483.8035	140.10933	-528.28064	-371.35123	562.99396	-399.8226	-479.46094	535.23596	-408.26456	-347.30795	1010.2542	-577.29126	-703.7262	1038.1979	-567.38531	-752.3562	596.96863	-372.56686	-853.89014	643.30396	-431.02649	-701.70587	443.51114	-785.76221	-802.17603	427.30649	-823.01892
514	2.56	-431.14877	133.93512	-541.91718	-483.68118	142.23584	-526.16443	-364.59668	565.45435	-405.48984	-474.09933	538.60901	-408.15967	-344.07162	1013.1385	-585.9519	-700.117	1044.4984	-555.89929	-739.57819	607.66595	-349.45627	-845.43396	653.90289	-402.48044	-704.29352	463.00946	-765.94067	-805.76727	451.43466	-799.54321
515	2.565	-431.79929	135.85251	-541.62622	-483.96625	144.7829	-524.14758	-358.12476	567.88757	-411.02707	-467.92035	541.88837	-408.88007	-341.87863	1015.7415	-594.73328	-696.06067	1051.5635	-545.01294	-725.71912	619.08856	-326.48749	-835.40973	665.34827	-374.10992	-707.02423	482.83215	-746.03125	-811.91626	470.95013	-775.96936
516	2.57	-432.59698	137.8535	-541.37805	-484.27499	147.50926	-522.24158	-351.86188	570.37732	-416.6507	-461.27811	544.93927	-409.62161	-340.06836	1018.3179	-603.74939	-691.48224	1057.9661	-535.11066	-710.70294	631.78473	-304.2308	-823.75409	677.85376	-346.00772	-712.96313	502.64972	-724.6488	-817.99817	492.35522	-750.76843
517	2.575	-433.51019	139.90465	-541.04358	-484.39758	150.1703	-519.78271	-345.50638	572.80164	-422.51935	-454.5036	547.9776	-410.5451	-338.92615	1020.654	-612.88574	-686.26031	1064.8799	-525.61249	-695.12634	645.48053	-282.08026	-810.22614	690.96466	-317.97998	-718.1604	523.4696	-703.40747	-824.44159	513.81641	-724.47223
518	2.58	-434.47787	142.0047	-540.81873	-484.72784	152.90436	-517.50653	-339.371	575.00763	-428.48599	-447.75372	550.94849	-411.18979	-338.50623	1022.6619	-622.02728	-679.74194	1071.2887	-516.66327	-678.38141	659.95972	-260.8139	-795.27594	705.23761	-290.76114	-722.97705	544.94061	-681.91827	-831.05969	535.33832	-697.10669
519	2.585	-435.69247	144.06264	-540.56702	-485.1951	155.71634	-514.93799	-333.87766	576.98932	-434.70169	-440.88577	553.82233	-411.34607	-338.21573	1024.6122	-631.35443	-673.87274	1077.7844	-508.92596	-660.50006	675.23273	-240.36499	-778.94629	720.43982	-264.19739	-728.67853	566.80225	-659.65863	-837.05811	556.41541	-668.77258
520	2.59	-437.0307	146.15796	-540.28998	-485.76035	158.312	-512.93622	-328.34317	578.78101	-440.98532	-433.3472	556.31305	-411.64923	-338.76331	1026.2019	-640.53693	-668.68103	1084.6981	-500.84418	-641.90607	691.06866	-220.95027	-761.34705	736.5174	-238.70609	-735.72174	587.8233	-635.54962	-844.19299	579.05835	-639.53613
521	2.595	-438.59003	148.22157	-540.16492	-486.33792	160.92567	-510.74362	-323.05911	580.41235	-447.10864	-425.76492	558.43359	-411.25479	-339.85965	1027.3201	-649.68298	-662.30304	1091.2261	-494.21512	-622.9137	707.276	-202.07449	-742.46594	753.75647	-214.21013	-742.34668	608.51544	-610.72559	-851.47919	599.81281	-607.19995
522	2.6	-440.52988	150.1449	-539.96887	-487.02429	163.25436	-508.50922	-318.59344	581.67218	-453.07523	-419.8078	560.3241	-411.87753	-340.89014	1028.8495	-658.79657	-656.51471	1097.5801	-487.55325	-601.94147	724.1485	-185.31204	-722.57477	771.90527	-190.94981	-748.93781	628.88654	-584.91669	-855.42236	623.07904	-577.43481
523	2.605	-442.68576	151.74568	-539.5564	-487.56271	165.15271	-505.16415	-315.02795	582.41962	-458.88599	-413.38812	561.9278	-412.14575	-343.94168	1029.111	-666.90637	-650.11346	1104.0051	-481.58139	-580.23352	741.03564	-169.62251	-700.08295	791.15509	-169.26498	-755.23108	648.66968	-558.19397	-859.51709	644.45667	-544.57013
524	2.61	-444.93457	153.28076	-539.00085	-488.11963	166.91861	-503.05951	-311.77609	582.93695	-464.34241	-407.44934	563.09662	-412.7056	-346.32114	1029.5712	-675.74792	-643.95282	1109.7606	-476.07828	-557.99249	758.11389	-155.56638	-676.67102	811.19806	-148.86375	-761.31476	667.57898	-530.36316	-864.43713	666.49194	-510.30905
525	2.615	-447.539	154.32239	-538.25336	-489.66272	168.20285	-500.32693	-309.40659	583.18634	-469.45117	-401.97552	564.2373	-413.28656	-349.77795	1029.661	-683.54468	-637.98706	1115.4556	-470.64743	-535.29077	775.14105	-143.96092	-651.93091	832.25372	-130.14345	-766.8114	685.83081	-501.50745	-868.50806	689.00012	-473.73752
526	2.62	-450.15857	155.11696	-537.29303	-491.13165	169.30118	-497.93961	-307.70355	583.10797	-474.08701	-398.01978	564.50183	-414.06186	-354.14304	1029.2611	-690.8175	-631.7854	1120.517	-465.95419	-512.05518	791.91626	-133.91609	-625.72223	853.68237	-113.20934	-772.09485	703.19318	-471.4335	-871.34869	711.36566	-436.02487
527	2.625	-453.25168	155.35596	-535.75275	-492.99246	170.01227	-495.29071	-306.897	582.65808	-478.1915	-394.61789	564.93762	-414.92593	-359.22754	1028.3676	-697.34302	-625.755	1125.911	-461.69675	-488.80539	808.35303	-125.87722	-597.88165	874.91174	-99.574898	-777.03595	719.40771	-439.40543	-873.07361	732.53082	-398.33615
528	2.63	-456.13553	155.81059	-534.85651	-494.9993	170.40912	-492.73019	-306.832	581.87054	-481.68436	-392.24234	564.80176	-415.57825	-364.54544	1027.1486	-703.28589	-619.17749	1130.9431	-457.61472	-465.80948	824.27625	-119.71902	-568.75555	896.36957	-88.532509	-781.41718	735.15387	-406.43225	-873.52435	754.51257	-357.53333
529	2.635	-459.23682	155.96085	-533.58344	-497.19556	170.65518	-490.43518	-307.07867	581.03314	-484.6806	-390.44864	564.45258	-416.45547	-370.24966	1025.5114	-708.58673	-613.49115	1136.1246	-453.25836	-443.31989	839.67371	-115.39747	-539.92206	917.72974	-79.933708	-785.4519	749.8559	-371.46051	-872.27991	775.71942	-315.79816
530	2.64	-462.48816	155.98529	-532.43359	-499.6199	170.77097	-488.55563	-307.73941	580.10852	-486.97763	-390.13599	564.19843	-416.32678	-376.20551	1023.5865	-713.12244	-606.92108	1140.601	-448.73019	-421.48581	854.32611	-112.63626	-510.5686	938.22656	-74.299263	-788.63129	764.28943	-334.36975	-869.21326	796.71838	-272.43167
